<svg width="170" height="56" viewBox="0 0 170 56" fill="none" xmlns="http://www.w3.org/2000/svg">
<path d="M156.462 0.000182H13.5454C13.0244 0.000182 12.5097 0.000182 11.9902 0.002982C11.5552 0.005782 11.1238 0.013916 10.6847 0.020762C9.73072 0.0318245 8.77902 0.114529 7.83783 0.268156C6.89797 0.425128 5.98755 0.721064 5.13736 1.14596C4.28821 1.57444 3.51232 2.13122 2.83784 2.79608C2.15981 3.45907 1.59462 4.2254 1.164 5.06561C0.7322 5.90413 0.432786 6.8027 0.276102 7.73025C0.117929 8.65664 0.0328146 9.59371 0.0215228 10.5331C0.00833918 10.9623 0.00694695 11.393 0 11.8223V44.1822C0.00694695 44.6169 0.00833918 45.038 0.0215228 45.4729C0.032818 46.4122 0.117932 47.3492 0.276102 48.2755C0.432353 49.2036 0.731785 50.1027 1.164 50.9416C1.59442 51.779 2.15969 52.5423 2.83784 53.2016C3.50976 53.8694 4.28616 54.4266 5.13736 54.8518C5.98754 55.2778 6.89786 55.5755 7.83783 55.7349C8.77918 55.8873 9.73078 55.97 10.6847 55.9824C11.1238 55.9919 11.5552 55.9974 11.9902 55.9974C12.5097 56.0002 13.0245 56.0002 13.5454 56.0002H156.462C156.973 56.0002 157.492 56.0002 158.002 55.9974C158.435 55.9974 158.879 55.9919 159.312 55.9824C160.264 55.9707 161.214 55.8879 162.153 55.7349C163.096 55.5744 164.01 55.2767 164.864 54.8518C165.715 54.4263 166.49 53.8692 167.162 53.2016C167.838 52.5397 168.404 51.777 168.84 50.9416C169.269 50.1021 169.566 49.2031 169.72 48.2755C169.878 47.3491 169.966 46.4123 169.983 45.4729C169.989 45.038 169.989 44.6169 169.989 44.1822C170 43.6736 170 43.1678 170 42.6509V13.3508C170 12.8381 170 12.3295 169.989 11.8223C169.989 11.393 169.989 10.9623 169.983 10.533C169.966 9.59357 169.878 8.65671 169.72 7.7302C169.565 6.80318 169.269 5.90469 168.84 5.06555C167.963 3.38146 166.573 2.01062 164.864 1.14583C164.01 0.721976 163.096 0.426119 162.153 0.26803C161.214 0.113726 160.264 0.0309929 159.312 0.020566C158.879 0.013734 158.435 0.00553 158.002 0.0028C157.492 0 156.973 0.000182 156.462 0.000182Z" fill="#A6A6A6"/>
<path d="M11.9971 54.7751C11.5642 54.7751 11.1419 54.7696 10.7124 54.7601C9.82279 54.7487 8.93523 54.6724 8.05704 54.5318C7.23816 54.3928 6.4449 54.1343 5.7034 53.7647C4.9687 53.3982 4.2986 52.9177 3.71876 52.3415C3.13053 51.7721 2.6408 51.1116 2.26898 50.3864C1.89306 49.6564 1.6329 48.874 1.49757 48.0663C1.35142 47.1985 1.27235 46.3209 1.26103 45.4413C1.25203 45.146 1.24023 44.163 1.24023 44.163V11.8222C1.24023 11.8222 1.25279 10.8542 1.2611 10.5698C1.27194 9.69157 1.35055 8.81541 1.49626 7.94892C1.63185 7.13905 1.89221 6.35435 2.26833 5.62198C2.63878 4.89722 3.12579 4.2363 3.71048 3.66485C4.29451 3.08797 4.96676 2.60494 5.7027 2.23339C6.4425 1.86503 7.23426 1.60832 8.05148 1.47188C8.93256 1.32987 9.8232 1.25309 10.7159 1.24219L11.9978 1.2251H157.995L159.292 1.24288C160.177 1.25324 161.06 1.32933 161.933 1.4705C162.758 1.60866 163.558 1.86716 164.306 2.23749C165.781 2.98628 166.98 4.17093 167.737 5.6254C168.107 6.35271 168.364 7.13101 168.498 7.93388C168.645 8.80749 168.727 9.69053 168.744 10.576C168.749 10.9725 168.749 11.3983 168.749 11.8222C168.76 12.3472 168.76 12.8469 168.76 13.3507V42.6508C168.76 43.1594 168.76 43.6557 168.749 44.1561C168.749 44.6114 168.749 45.0284 168.743 45.4577C168.726 46.3273 168.645 47.1946 168.5 48.0526C168.368 48.8661 168.109 49.6546 167.733 50.3906C167.359 51.108 166.872 51.7627 166.29 52.3306C165.71 52.9099 165.039 53.3932 164.302 53.7621C163.556 54.1345 162.757 54.3939 161.933 54.5318C161.054 54.6731 160.167 54.7495 159.277 54.7601C158.861 54.7696 158.425 54.7751 158.002 54.7751L156.462 54.7779L11.9971 54.7751Z" fill="black"/>
<path d="M35.1877 28.4212C35.203 27.2527 35.518 26.107 36.1033 25.0907C36.6886 24.0743 37.5253 23.2204 38.5356 22.6084C37.8938 21.7051 37.0472 20.9618 36.0629 20.4374C35.0787 19.9131 33.9839 19.6221 32.8655 19.5876C30.4799 19.3408 28.1672 20.9944 26.9515 20.9944C25.7124 20.9944 23.8407 19.6121 21.8251 19.653C20.5215 19.6945 19.2509 20.0681 18.1373 20.7374C17.0237 21.4066 16.105 22.3488 15.4707 23.472C12.7232 28.1598 14.7726 35.0492 17.4045 38.8385C18.7213 40.694 20.2603 42.7666 22.2739 42.6931C24.2445 42.6126 24.9804 41.4549 27.359 41.4549C29.7155 41.4549 30.406 42.6931 32.4605 42.6464C34.575 42.6126 35.9072 40.7827 37.1778 38.9096C38.1239 37.5875 38.8519 36.1263 39.3349 34.5801C38.1065 34.0681 37.0582 33.211 36.3207 32.1158C35.5832 31.0206 35.1892 29.7357 35.1877 28.4212Z" fill="white"/>
<path d="M31.307 17.0954C32.4599 15.7315 33.0279 13.9784 32.8904 12.2085C31.129 12.3908 29.502 13.2204 28.3335 14.5319C27.7622 15.1727 27.3247 15.9181 27.0459 16.7256C26.7671 17.533 26.6525 18.3868 26.7087 19.2379C27.5897 19.2468 28.4613 19.0587 29.2578 18.6875C30.0543 18.3164 30.755 17.772 31.307 17.0954Z" fill="white"/>
<path d="M60.0964 37.9957H53.372L51.7571 42.6948H48.9089L55.2782 25.3096H58.2374L64.6067 42.6948H61.7099L60.0964 37.9957ZM54.0684 35.8274H59.3987L56.771 28.2012H56.6975L54.0684 35.8274Z" fill="white"/>
<path d="M78.3623 36.3575C78.3623 40.2964 76.223 42.827 72.9946 42.827C72.1768 42.8692 71.3635 42.6836 70.6478 42.2914C69.9321 41.8992 69.3429 41.3163 68.9477 40.6095H68.8866V46.8876H66.2465V30.0192H68.8021V32.1274H68.8506C69.264 31.424 69.8631 30.8441 70.5842 30.4495C71.3054 30.055 72.1216 29.8604 72.9461 29.8866C76.2104 29.8866 78.3623 32.4296 78.3623 36.3575ZM75.6486 36.3575C75.6486 33.7913 74.3029 32.1042 72.2496 32.1042C70.2324 32.1042 68.8756 33.8269 68.8756 36.3575C68.8756 38.9114 70.2324 40.6218 72.2496 40.6218C74.3029 40.6218 75.6486 38.947 75.6486 36.3575Z" fill="white"/>
<path d="M92.5188 36.3575C92.5188 40.2964 90.3795 42.827 87.1511 42.827C86.3333 42.8692 85.52 42.6836 84.8043 42.2914C84.0886 41.8992 83.4994 41.3163 83.1042 40.6094H83.0431V46.8876H80.403V30.0192H82.9585V32.1274H83.0071C83.4204 31.424 84.0195 30.8441 84.7407 30.4495C85.4619 30.0549 86.2781 29.8604 87.1025 29.8866C90.367 29.8866 92.5188 32.4296 92.5188 36.3575ZM89.8051 36.3575C89.8051 33.7913 88.4594 32.1042 86.4061 32.1042C84.3889 32.1042 83.0321 33.8268 83.0321 36.3575C83.0321 38.9114 84.3889 40.6218 86.4061 40.6218C88.4594 40.6218 89.8051 38.947 89.8051 36.3575Z" fill="white"/>
<path d="M101.875 37.8507C102.071 39.5747 103.77 40.7067 106.093 40.7067C108.318 40.7067 109.919 39.5746 109.919 38.0201C109.919 36.6707 108.953 35.8627 106.667 35.309L104.381 34.7662C101.141 33.9951 99.6372 32.5022 99.6372 30.0795C99.6372 27.0799 102.29 25.0195 106.056 25.0195C109.784 25.0195 112.34 27.0799 112.426 30.0795H109.761C109.601 28.3445 108.146 27.2973 106.019 27.2973C103.892 27.2973 102.437 28.3569 102.437 29.899C102.437 31.1281 103.366 31.8514 105.64 32.405L107.584 32.8754C111.203 33.7189 112.707 35.1518 112.707 37.6947C112.707 40.9472 110.078 42.9843 105.897 42.9843C101.985 42.9843 99.3431 40.9951 99.1724 37.8505L101.875 37.8507Z" fill="white"/>
<path d="M118.405 27.02V30.0196H120.851V32.08H118.405V39.0677C118.405 40.1532 118.895 40.6591 119.97 40.6591C120.261 40.6541 120.55 40.634 120.839 40.5989V42.6469C120.355 42.7359 119.864 42.7763 119.372 42.7672C116.768 42.7672 115.753 41.8034 115.753 39.3452V32.08H113.883V30.0196H115.753V27.02H118.405Z" fill="white"/>
<path d="M122.268 36.3579C122.268 32.3698 124.651 29.8638 128.368 29.8638C132.097 29.8638 134.469 32.3698 134.469 36.3579C134.469 40.3569 132.11 42.852 128.368 42.852C124.628 42.852 122.268 40.3569 122.268 36.3579ZM131.779 36.3579C131.779 33.6222 130.507 32.0075 128.368 32.0075C126.229 32.0075 124.958 33.6345 124.958 36.3579C124.958 39.1046 126.229 40.7069 128.368 40.7069C130.507 40.7069 131.779 39.1046 131.779 36.3579Z" fill="white"/>
<path d="M136.646 30.0196H139.164V32.177H139.225C139.396 31.5032 139.796 30.9077 140.36 30.4907C140.923 30.0737 141.615 29.8605 142.319 29.887C142.623 29.8859 142.927 29.9185 143.224 29.984V32.4176C142.839 32.302 142.439 32.2489 142.037 32.2604C141.654 32.2451 141.271 32.3117 140.917 32.4558C140.562 32.5998 140.242 32.8178 139.981 33.0949C139.72 33.3719 139.522 33.7014 139.402 34.0608C139.282 34.4201 139.243 34.8008 139.286 35.1766V42.6948H136.646L136.646 30.0196Z" fill="white"/>
<path d="M155.396 38.9715C155.041 41.2725 152.767 42.8516 149.858 42.8516C146.116 42.8516 143.794 40.381 143.794 36.4176C143.794 32.4418 146.129 29.8633 149.747 29.8633C153.306 29.8633 155.543 32.2723 155.543 36.1154V37.0068H146.459V37.1641C146.417 37.6305 146.476 38.1005 146.633 38.5426C146.789 38.9848 147.04 39.3891 147.367 39.7287C147.694 40.0683 148.091 40.3353 148.531 40.5121C148.971 40.689 149.444 40.7715 149.919 40.7543C150.543 40.8119 151.169 40.6695 151.704 40.3483C152.239 40.0271 152.655 39.5442 152.889 38.9715L155.396 38.9715ZM146.472 35.1885H152.902C152.926 34.769 152.861 34.3493 152.712 33.9556C152.564 33.5619 152.334 33.2028 152.038 32.9007C151.742 32.5986 151.385 32.3602 150.991 32.2002C150.597 32.0403 150.173 31.9625 149.747 31.9715C149.317 31.969 148.891 32.0504 148.493 32.211C148.095 32.3716 147.734 32.6083 147.429 32.9074C147.125 33.2065 146.883 33.5621 146.719 33.9536C146.555 34.3451 146.47 34.7648 146.472 35.1885Z" fill="white"/>
<path d="M53.7375 12.2238C54.291 12.1847 54.8464 12.2671 55.3637 12.4651C55.881 12.6631 56.3472 12.9718 56.7288 13.3689C57.1104 13.7659 57.3977 14.2415 57.5702 14.7613C57.7427 15.2811 57.7959 15.8321 57.7262 16.3746C57.7262 19.0434 56.2625 20.5774 53.7375 20.5774H50.6757V12.2238H53.7375ZM51.9922 19.396H53.5905C53.986 19.4193 54.3818 19.3554 54.7491 19.209C55.1164 19.0625 55.4459 18.8372 55.7137 18.5494C55.9815 18.2616 56.1808 17.9186 56.2971 17.5453C56.4134 17.1721 56.4437 16.7779 56.386 16.3916C56.4395 16.0069 56.4061 15.6152 56.288 15.2447C56.1699 14.8741 55.9701 14.5339 55.703 14.2484C55.4358 13.9629 55.1078 13.7392 54.7426 13.5933C54.3774 13.4473 53.984 13.3828 53.5905 13.4043H51.9922V19.396Z" fill="white"/>
<path d="M59.2134 17.4223C59.1732 17.008 59.2212 16.59 59.3546 16.1951C59.4879 15.8002 59.7035 15.4371 59.9875 15.1292C60.2716 14.8212 60.6178 14.5751 61.004 14.4067C61.3902 14.2383 61.8078 14.1514 62.2302 14.1514C62.6525 14.1514 63.0701 14.2383 63.4563 14.4067C63.8425 14.5751 64.1888 14.8212 64.4728 15.1292C64.7568 15.4371 64.9724 15.8002 65.1058 16.1951C65.2391 16.59 65.2872 17.008 65.2469 17.4223C65.2879 17.837 65.2404 18.2556 65.1074 18.6511C64.9745 19.0467 64.759 19.4104 64.4749 19.719C64.1908 20.0276 63.8443 20.2741 63.4577 20.4429C63.0711 20.6116 62.653 20.6988 62.2302 20.6988C61.8073 20.6988 61.3892 20.6116 61.0026 20.4429C60.616 20.2741 60.2695 20.0276 59.9854 19.719C59.7013 19.4104 59.4858 19.0467 59.3529 18.6511C59.2199 18.2556 59.1724 17.837 59.2134 17.4223ZM63.9484 17.4223C63.9484 16.0558 63.3254 15.2567 62.2322 15.2567C61.1348 15.2567 60.5175 16.0558 60.5175 17.4223C60.5175 18.7998 61.1349 19.5927 62.2322 19.5927C63.3255 19.5927 63.9484 18.7943 63.9484 17.4223Z" fill="white"/>
<path d="M73.2672 20.5771H71.9576L70.6354 15.9341H70.5355L69.2189 20.5771H67.9218L66.1584 14.2729H67.439L68.5849 19.0833H68.6793L69.9945 14.2729H71.2056L72.5208 19.0833H72.6207L73.7611 14.2729H75.0236L73.2672 20.5771Z" fill="white"/>
<path d="M76.5067 14.2729H77.722V15.2744H77.8163C77.9764 14.9147 78.2463 14.6132 78.5885 14.4118C78.9307 14.2105 79.3281 14.1194 79.7253 14.1512C80.0366 14.1282 80.3491 14.1744 80.6398 14.2865C80.9304 14.3987 81.1918 14.5738 81.4044 14.799C81.6171 15.0242 81.7756 15.2936 81.8682 15.5874C81.9608 15.8811 81.9852 16.1917 81.9395 16.4959V20.5769H80.677V16.8084C80.677 15.7953 80.2303 15.2915 79.2966 15.2915C79.0853 15.2818 78.8743 15.3172 78.6782 15.3954C78.4821 15.4735 78.3054 15.5926 78.1603 15.7443C78.0152 15.896 77.9052 16.0769 77.8376 16.2745C77.7701 16.4721 77.7467 16.6817 77.7691 16.889V20.577H76.5067L76.5067 14.2729Z" fill="white"/>
<path d="M83.9512 11.812H85.2137V20.577H83.9512V11.812Z" fill="white"/>
<path d="M86.9686 17.4224C86.9285 17.0081 86.9766 16.5901 87.1099 16.1952C87.2433 15.8003 87.4589 15.4372 87.743 15.1292C88.027 14.8212 88.3733 14.5751 88.7595 14.4067C89.1458 14.2384 89.5634 14.1514 89.9858 14.1514C90.4081 14.1514 90.8258 14.2384 91.212 14.4067C91.5983 14.5751 91.9445 14.8212 92.2286 15.1292C92.5127 15.4372 92.7283 15.8003 92.8616 16.1952C92.995 16.5901 93.0431 17.0081 93.0029 17.4224C93.0438 17.8371 92.9963 18.2557 92.8633 18.6513C92.7303 19.0468 92.5148 19.4105 92.2306 19.7191C91.9465 20.0277 91.6 20.2742 91.2134 20.443C90.8268 20.6117 90.4086 20.6989 89.9858 20.6989C89.563 20.6989 89.1448 20.6117 88.7582 20.443C88.3716 20.2742 88.0251 20.0277 87.7409 19.7191C87.4568 19.4105 87.2413 19.0468 87.1083 18.6513C86.9753 18.2557 86.9277 17.8371 86.9686 17.4224ZM91.7036 17.4224C91.7036 16.0559 91.0807 15.2568 89.9875 15.2568C88.8901 15.2568 88.2728 16.0559 88.2728 17.4224C88.2728 18.7999 88.8902 19.5928 89.9875 19.5928C91.0807 19.5928 91.7036 18.7944 91.7036 17.4224Z" fill="white"/>
<path d="M94.332 18.7943C94.332 17.6596 95.1894 17.0054 96.7113 16.9124L98.4441 16.814V16.2698C98.4441 15.604 97.9974 15.228 97.1345 15.228C96.4297 15.228 95.9414 15.483 95.8012 15.9287H94.579C94.708 14.8459 95.7416 14.1514 97.1927 14.1514C98.7965 14.1514 99.7011 14.9382 99.7011 16.2698V20.5771H98.4857V19.6912H98.3859C98.1831 20.009 97.8984 20.2681 97.5608 20.442C97.2233 20.6159 96.8449 20.6983 96.4644 20.681C96.1958 20.7085 95.9244 20.6803 95.6676 20.5981C95.4108 20.5159 95.1743 20.3817 94.9734 20.2039C94.7725 20.0261 94.6117 19.8089 94.5012 19.5661C94.3907 19.3233 94.3331 19.0604 94.332 18.7943ZM98.4441 18.2556V17.7286L96.882 17.827C96.001 17.8851 95.6014 18.1805 95.6014 18.7362C95.6014 19.3036 96.1009 19.6338 96.7877 19.6338C96.9889 19.6538 97.1922 19.6338 97.3854 19.5749C97.5786 19.516 97.7578 19.4193 97.9124 19.2908C98.0669 19.1622 98.1936 19.0043 98.285 18.8265C98.3763 18.6486 98.4305 18.4545 98.4441 18.2556Z" fill="white"/>
<path d="M101.36 17.4223C101.36 15.4303 102.399 14.1684 104.016 14.1684C104.415 14.1502 104.812 14.2446 105.16 14.4404C105.507 14.6363 105.791 14.9255 105.977 15.2744H106.072V11.812H107.334V20.577H106.124V19.581H106.025C105.823 19.9275 105.53 20.2132 105.176 20.4071C104.822 20.6009 104.42 20.6956 104.016 20.6809C102.388 20.681 101.36 19.4191 101.36 17.4223ZM102.664 17.4223C102.664 18.7594 103.304 19.564 104.374 19.564C105.438 19.564 106.095 18.7478 106.095 17.4278C106.095 16.1139 105.431 15.2861 104.374 15.2861C103.311 15.2861 102.664 16.0961 102.664 17.4223Z" fill="white"/>
<path d="M112.558 17.4223C112.517 17.008 112.565 16.59 112.699 16.1951C112.832 15.8002 113.048 15.4371 113.332 15.1292C113.616 14.8212 113.962 14.5751 114.348 14.4067C114.734 14.2383 115.152 14.1514 115.574 14.1514C115.997 14.1514 116.414 14.2383 116.801 14.4067C117.187 14.5751 117.533 14.8212 117.817 15.1292C118.101 15.4371 118.317 15.8002 118.45 16.1951C118.583 16.59 118.631 17.008 118.591 17.4223C118.632 17.837 118.585 18.2556 118.452 18.6511C118.319 19.0467 118.103 19.4104 117.819 19.719C117.535 20.0276 117.189 20.2741 116.802 20.4429C116.415 20.6116 115.997 20.6988 115.574 20.6988C115.152 20.6988 114.733 20.6116 114.347 20.4429C113.96 20.2741 113.614 20.0276 113.33 19.719C113.046 19.4104 112.83 19.0467 112.697 18.6511C112.564 18.2556 112.517 17.837 112.558 17.4223ZM117.293 17.4223C117.293 16.0558 116.67 15.2567 115.576 15.2567C114.479 15.2567 113.862 16.0558 113.862 17.4223C113.862 18.7998 114.479 19.5927 115.576 19.5927C116.67 19.5927 117.293 18.7943 117.293 17.4223Z" fill="white"/>
<path d="M120.285 14.2729H121.5V15.2744H121.595C121.755 14.9147 122.025 14.6132 122.367 14.4118C122.709 14.2105 123.107 14.1194 123.504 14.1512C123.815 14.1282 124.128 14.1744 124.418 14.2865C124.709 14.3987 124.97 14.5738 125.183 14.799C125.396 15.0242 125.554 15.2936 125.647 15.5874C125.739 15.8811 125.764 16.1917 125.718 16.4959V20.5769H124.455V16.8084C124.455 15.7953 124.009 15.2915 123.075 15.2915C122.864 15.2818 122.653 15.3172 122.457 15.3954C122.26 15.4735 122.084 15.5926 121.939 15.7443C121.794 15.896 121.684 16.0769 121.616 16.2745C121.549 16.4721 121.525 16.6817 121.548 16.889V20.577H120.285V14.2729Z" fill="white"/>
<path d="M132.852 12.7036V14.3019H134.238V15.3498H132.852V18.5914C132.852 19.2518 133.128 19.5409 133.756 19.5409C133.917 19.5404 134.078 19.5308 134.238 19.5122V20.5485C134.011 20.5885 133.781 20.6098 133.551 20.6121C132.147 20.6121 131.588 20.1254 131.588 18.91V15.3498H130.572V14.3018H131.588V12.7036H132.852Z" fill="white"/>
<path d="M135.962 11.812H137.214V15.286H137.313C137.481 14.923 137.759 14.6198 138.108 14.4177C138.457 14.2156 138.86 14.1245 139.264 14.1567C139.574 14.1401 139.883 14.1911 140.171 14.3059C140.458 14.4208 140.716 14.5967 140.926 14.8212C141.137 15.0457 141.294 15.3132 141.388 15.6046C141.481 15.8959 141.508 16.2041 141.467 16.5069V20.5771H140.203V16.8139C140.203 15.8069 139.727 15.297 138.835 15.297C138.618 15.2794 138.4 15.3088 138.196 15.3831C137.992 15.4574 137.806 15.5747 137.653 15.727C137.499 15.8792 137.382 16.0626 137.308 16.2644C137.234 16.4662 137.205 16.6815 137.225 16.8952V20.577H135.962L135.962 11.812Z" fill="white"/>
<path d="M148.828 18.8751C148.657 19.4513 148.285 19.9496 147.779 20.283C147.272 20.6165 146.662 20.7637 146.056 20.6989C145.635 20.7099 145.216 20.6303 144.829 20.4658C144.442 20.3013 144.096 20.0557 143.815 19.7461C143.533 19.4365 143.324 19.0703 143.201 18.673C143.078 18.2756 143.044 17.8566 143.101 17.445C143.045 17.0322 143.08 16.6123 143.203 16.2137C143.326 15.8152 143.534 15.4473 143.814 15.135C144.093 14.8227 144.438 14.5733 144.824 14.4036C145.21 14.2339 145.628 14.1479 146.051 14.1515C147.831 14.1515 148.905 15.3499 148.905 17.3295V17.7636H144.387V17.8333C144.368 18.0647 144.397 18.2975 144.474 18.517C144.551 18.7364 144.674 18.9376 144.834 19.1077C144.994 19.2777 145.189 19.4128 145.406 19.5044C145.622 19.5959 145.856 19.6419 146.091 19.6393C146.393 19.675 146.699 19.6215 146.97 19.4854C147.241 19.3493 147.465 19.1368 147.613 18.8751L148.828 18.8751ZM144.387 16.8435H147.619C147.635 16.6319 147.605 16.4194 147.533 16.2196C147.461 16.0198 147.347 15.8371 147.198 15.6833C147.05 15.5295 146.871 15.408 146.672 15.3265C146.473 15.2451 146.259 15.2055 146.044 15.2104C145.826 15.2077 145.609 15.2481 145.407 15.3292C145.204 15.4103 145.021 15.5305 144.866 15.6827C144.712 15.8349 144.59 16.016 144.508 16.2154C144.426 16.4147 144.385 16.6283 144.387 16.8435Z" fill="white"/>
</svg>
