<svg width="75" height="75" viewBox="0 0 75 75" fill="none" xmlns="http://www.w3.org/2000/svg">
<path d="M37.5 6.25C20.2812 6.25 6.25 20.2812 6.25 37.5C6.25 54.7188 20.2812 68.75 37.5 68.75C54.7188 68.75 68.75 54.7188 68.75 37.5C68.75 20.2812 54.7188 6.25 37.5 6.25ZM51.0938 48.6562C50.6562 49.4062 49.875 49.8125 49.0625 49.8125C48.6562 49.8125 48.25 49.7188 47.875 49.4688L38.1875 43.6875C35.7812 42.25 34 39.0938 34 36.3125V23.5C34 22.2188 35.0625 21.1562 36.3438 21.1562C37.625 21.1562 38.6875 22.2188 38.6875 23.5V36.3125C38.6875 37.4375 39.625 39.0938 40.5938 39.6562L50.2812 45.4375C51.4062 46.0938 51.7812 47.5312 51.0938 48.6562Z" fill="#FD7436"/>
</svg>
