<svg width="75" height="75" viewBox="0 0 75 75" fill="none" xmlns="http://www.w3.org/2000/svg">
<path d="M65.625 68.75H9.375C8.09375 68.75 7.03125 67.6875 7.03125 66.4062C7.03125 65.125 8.09375 64.0625 9.375 64.0625H65.625C66.9062 64.0625 67.9688 65.125 67.9688 66.4062C67.9688 67.6875 66.9062 68.75 65.625 68.75Z" fill="#FD7436"/>
<path d="M59.4375 10.8749C53.375 4.81244 47.4375 4.65619 41.2187 10.8749L37.4375 14.6562C37.125 14.9687 37 15.4687 37.125 15.9062C39.5 24.1874 46.125 30.8124 54.4062 33.1874C54.5312 33.2187 54.6562 33.2499 54.7812 33.2499C55.125 33.2499 55.4375 33.1249 55.6875 32.8749L59.4375 29.0937C62.5312 26.0312 64.0312 23.0624 64.0312 20.0624C64.0625 16.9687 62.5625 13.9687 59.4375 10.8749Z" fill="#FD7436"/>
<path d="M48.7813 36.0312C47.875 35.5937 47 35.1562 46.1563 34.6562C45.4688 34.25 44.8125 33.8125 44.1563 33.3438C43.625 33 43 32.5 42.4063 32C42.3438 31.9687 42.125 31.7812 41.875 31.5312C40.8438 30.6562 39.6875 29.5312 38.6563 28.2812C38.5625 28.2188 38.4063 28 38.1875 27.7187C37.875 27.3437 37.3438 26.7187 36.875 26C36.5 25.5312 36.0625 24.8437 35.6563 24.1562C35.1563 23.3125 34.7188 22.4687 34.2813 21.5937C33.9675 20.9214 33.702 20.2651 33.4616 19.6365C33.3314 19.296 32.8937 19.2 32.636 19.4578L13.5625 38.5312C13.1563 38.9375 12.7813 39.7188 12.6875 40.25L11 52.2187C10.6875 54.3437 11.2813 56.3437 12.5938 57.6875C13.7188 58.7812 15.2813 59.375 16.9688 59.375C17.3438 59.375 17.7188 59.3437 18.0938 59.2812L30.0938 57.5938C30.6563 57.5 31.4375 57.125 31.8125 56.7188L50.8788 37.6524C51.1384 37.3929 51.0394 36.9507 50.6967 36.8192C50.0757 36.5809 49.4525 36.3221 48.7813 36.0312Z" fill="#FD7436"/>
</svg>
