<svg width="321" height="313" viewBox="0 0 321 313" fill="none" xmlns="http://www.w3.org/2000/svg">
<g clip-path="url(#clip0_190_3047)">
<g opacity="0.4">
<path d="M381.473 -33.2148C389.746 -18.8104 396.768 -3.72285 402.461 11.8811C417.149 52.3867 424.344 114.863 408.744 150.892C392.568 188.639 350.665 234.968 304.899 246.506C283.412 252.044 258.968 249.449 237.855 239.358C217.542 229.651 202.819 214.034 198.493 197.593C194.076 180.332 199.347 154.058 204.918 126.223C210.447 98.6375 216.153 70.1037 213.344 47.0677C210.044 19.9172 194.687 0.348493 181.154 -16.9054C171.302 -29.4038 162.037 -41.2506 158.402 -54.419C149.422 -86.9546 174.25 -125.788 202.435 -138.785C238.119 -155.161 278.625 -133.511 294.386 -123.447C322.54 -105.522 341.778 -91.033 356.831 -70.0737C364.656 -59.2838 373.094 -47.7262 381.473 -33.2148ZM204.414 208.808C211.18 220.526 223.18 231.084 238.361 238.34C259.237 248.316 283.393 250.892 304.638 245.415C350.057 233.984 391.642 187.972 407.716 150.481C423.194 114.721 416.021 52.602 401.418 12.3116C386.949 -26.7882 370.449 -49.4084 355.888 -69.3571C340.97 -90.1963 321.823 -104.619 293.791 -122.469C278.185 -132.425 238.091 -153.864 202.929 -137.724C175.157 -124.925 150.682 -86.6911 159.515 -54.705C163.052 -41.7306 172.309 -30.0114 182.087 -17.5496C195.714 -0.178342 211.16 19.4978 214.488 46.9488C217.344 70.1562 211.598 98.805 206.054 126.479C200.509 154.153 195.25 180.289 199.589 197.277C200.676 201.319 202.299 205.197 204.414 208.808Z" fill="white"/>
<path d="M311.55 -11.3798C316.835 -2.22722 319.78 8.26227 319.557 17.8739C318.858 46.8182 291.806 68.42 280.195 76.3647C259.526 90.5564 243.937 99.6226 225.449 104.01C207.743 108.382 187.658 113.335 157.42 112.276C126.342 110.95 83.2134 98.4078 64.6602 77.6864C45.1887 56.082 28.3298 14.5319 35.4254 -19.9281C42.0864 -53.2919 74.7641 -82.4997 101.387 -78.8916C114.072 -77.0762 129.566 -66.1051 145.934 -54.5557C162.153 -43.105 178.918 -31.2564 194.79 -26.7511C213.516 -21.4363 231.128 -26.4274 246.668 -30.8299C257.988 -34.0504 268.67 -37.0744 278.443 -35.8754C292.483 -34.1555 304.242 -24.0389 311.55 -11.3798ZM52.5247 58.7671C56.215 65.2497 60.5663 71.3329 65.5088 76.9191C83.854 97.4173 126.571 109.84 157.468 111.126C187.566 112.239 207.565 107.296 225.197 102.888C243.514 98.5465 259.008 89.5217 279.587 75.448C291.055 67.5988 317.772 46.2832 318.462 17.8721C318.97 -4.55596 301.932 -31.8054 278.35 -34.7123C268.794 -35.8781 258.228 -32.8814 246.989 -29.681C231.303 -25.2341 213.52 -20.197 194.492 -25.6015C178.416 -30.1614 161.566 -42.0664 145.288 -53.575C129.009 -65.0836 113.651 -75.9347 101.239 -77.71C77.8196 -80.8827 43.7464 -55.6899 36.5473 -19.6513C31.2007 6.31042 39.6312 36.3893 52.5445 58.7557L52.5247 58.7671Z" fill="white"/>
</g>
</g>
<defs>
<clipPath id="clip0_190_3047">
<rect width="321" height="313" fill="white"/>
</clipPath>
</defs>
</svg>
