<svg width="194" height="194" viewBox="0 0 194 194" fill="none" xmlns="http://www.w3.org/2000/svg">
<g clip-path="url(#clip0_190_2808)">
<path d="M0.806789 47.1245C15.2288 32.2725 26.7694 30.4874 34.659 32.3159C38.6651 33.2443 41.7747 35.1135 43.8845 36.7536C44.9388 37.5731 45.741 38.3336 46.2779 38.8871C46.5315 39.1485 46.7257 39.3635 46.859 39.5164C43.0645 45.9916 38.3158 49.691 33.3284 51.6138C28.254 53.5702 22.8966 53.7009 17.9881 52.9916C13.08 52.2823 8.64365 50.7363 5.43034 49.3644C3.82493 48.6789 2.52791 48.0383 1.63361 47.5698C1.30033 47.3952 1.02309 47.2446 0.806789 47.1245Z" fill="#8B966C" stroke="#8B966C"/>
<path d="M61.7903 29.7365C61.6378 29.7764 61.4489 29.8235 61.2264 29.8744C60.5622 30.0264 59.6001 30.2124 58.418 30.3455C56.0516 30.6121 52.8155 30.6657 49.3245 29.8208C42.4727 28.1624 34.5386 23.0208 30.297 8.92844C30.4481 8.91208 30.6278 8.89427 30.8338 8.87658C31.5498 8.81512 32.5831 8.75521 33.8449 8.7626C36.3702 8.77739 39.7998 9.06174 43.4262 10.1359C50.5659 12.2508 58.4862 17.4263 61.7903 29.7365Z" fill="#8B966C" stroke="#8B966C"/>
<path d="M61.6166 45.0122C61.6372 45.1699 61.6604 45.3653 61.6832 45.595C61.7508 46.2763 61.8151 47.2584 61.8 48.4523C61.7698 50.8422 61.4217 54.0685 60.1559 57.4273C57.6706 64.0215 51.6132 71.225 37.1741 73.5458C37.1748 73.3891 37.1778 73.2009 37.1846 72.9839C37.2071 72.2612 37.2715 71.223 37.4316 69.9668C37.7521 67.4525 38.4544 64.0771 39.9637 60.6144C42.9352 53.7972 49.0362 46.6228 61.6166 45.0122Z" fill="#8B966C" stroke="#8B966C"/>
<path d="M165.411 63.9774C165.214 63.9098 164.955 63.8175 164.644 63.6982C163.867 63.4005 162.766 62.9353 161.478 62.268C158.9 60.9324 155.583 58.7931 152.612 55.5767C146.762 49.2429 142.183 38.6584 147.43 21.5704C147.616 21.6667 147.85 21.7904 148.124 21.9419C148.892 22.3652 149.979 23.0048 151.252 23.8664C153.8 25.5907 157.083 28.1983 160.034 31.7335C165.861 38.7136 170.41 49.3183 165.411 63.9774Z" fill="#8B966C" stroke="#8B966C"/>
<path d="M155.037 79.0077C154.946 79.1952 154.823 79.4398 154.667 79.7326C154.277 80.4646 153.682 81.4964 152.863 82.687C151.226 85.0699 148.703 88.0789 145.157 90.5968C138.175 95.5553 127.144 98.6725 110.885 91.1244C111.003 90.953 111.153 90.7387 111.336 90.4876C111.849 89.7835 112.615 88.7909 113.623 87.6438C115.641 85.3483 118.622 82.4425 122.48 79.991C130.098 75.1509 141.146 72.0668 155.037 79.0077Z" fill="#8B966C" stroke="#8B966C"/>
<path d="M134.078 42.7096C133.914 42.6735 133.709 42.6259 133.468 42.5647C132.779 42.3897 131.797 42.1047 130.635 41.6665C128.31 40.7893 125.277 39.3025 122.43 36.8646C116.839 32.0763 111.887 23.5543 114.592 8.51642C114.745 8.57472 114.929 8.64651 115.14 8.73232C115.834 9.0152 116.823 9.45006 117.992 10.0554C120.332 11.2669 123.386 13.1564 126.25 15.8692C131.893 21.2133 136.817 29.759 134.078 42.7096Z" fill="#8B966C" stroke="#8B966C"/>
<path d="M126.723 56.6871C126.667 56.8458 126.594 57.0435 126.504 57.2753C126.246 57.9373 125.843 58.8757 125.266 59.972C124.112 62.1665 122.268 64.9828 119.506 67.4847C114.082 72.3995 105.04 76.1726 90.4954 71.4317C90.5714 71.2864 90.6649 71.112 90.7762 70.9119C91.1396 70.2586 91.6907 69.3333 92.4334 68.2517C93.9198 66.0868 96.1674 63.3053 99.206 60.8243C105.192 55.9365 114.259 52.199 126.723 56.6871Z" fill="#8B966C" stroke="#8B966C"/>
<path d="M99.8051 32.3927C99.6374 32.3905 99.4276 32.3851 99.1802 32.3739C98.4709 32.3415 97.4532 32.2605 96.2291 32.0654C93.7789 31.675 90.5136 30.8295 87.2401 29.0131C80.8113 25.4459 74.2598 18.086 73.8932 2.78478C74.0588 2.81229 74.2579 2.84707 74.4874 2.89037C75.2279 3.03011 76.2848 3.25858 77.5509 3.61708C80.0851 4.33463 83.4477 5.57034 86.7886 7.65084C93.3701 11.7494 99.8852 19.1306 99.8051 32.3927Z" fill="#8B966C" stroke="#8B966C"/>
<path d="M90.5196 59.6284C86.1892 65.5312 78.087 71.0387 62.8865 69.3062C62.9345 69.1524 62.9927 68.9698 63.0617 68.7613C63.2969 68.0506 63.6591 67.0358 64.1756 65.8292C65.2095 63.4141 66.8583 60.2391 69.3375 57.1972C74.2218 51.2046 82.3365 45.711 95.4285 47.5921C95.4054 47.7589 95.374 47.9675 95.3319 48.2131C95.2118 48.9142 95.0051 49.9153 94.6597 51.1062C93.9685 53.4899 92.7254 56.6217 90.5196 59.6284Z" fill="#8B966C" stroke="#8B966C"/>
<path d="M25.8178 42.1263C25.8178 42.1263 188.913 -0.369772 229.962 193.999" stroke="#8B966C" stroke-width="1.16" stroke-miterlimit="10"/>
<path d="M48.3385 22.2093C48.3385 22.2093 63.0636 31.4295 73.7783 38.3199C73.7783 38.3199 57.8931 45.0827 49.562 59.6029" stroke="#8B966C" stroke-width="1.16" stroke-miterlimit="10"/>
<path d="M156.807 47.2129C156.807 47.2129 165.5 66.4036 171.699 80.5481C171.699 80.5481 151.08 76.5963 132.951 85.5286" stroke="#8B966C" stroke-width="1.16" stroke-miterlimit="10"/>
<path d="M125.105 29.3561C125.105 29.3561 134.443 44.8464 141.151 56.2918C141.151 56.2918 123.169 54.9952 108.654 64.4464" stroke="#8B966C" stroke-width="1.16" stroke-miterlimit="10"/>
<path d="M88.3816 21.1053C88.3816 21.1053 100.599 34.4419 109.469 44.2945C109.469 44.2945 91.6425 46.6439 79.2921 58.8499" stroke="#8B966C" stroke-width="1.16" stroke-miterlimit="10"/>
</g>
<defs>
<clipPath id="clip0_190_2808">
<rect width="194" height="194" fill="white" transform="matrix(-1 0 0 1 194 0)"/>
</clipPath>
</defs>
</svg>
