<svg width="75" height="75" viewBox="0 0 75 75" fill="none" xmlns="http://www.w3.org/2000/svg">
<path d="M68.75 8.59375H6.25C4.96875 8.59375 3.90625 7.53125 3.90625 6.25C3.90625 4.96875 4.96875 3.90625 6.25 3.90625H68.75C70.0312 3.90625 71.0938 4.96875 71.0938 6.25C71.0938 7.53125 70.0312 8.59375 68.75 8.59375Z" fill="#FD7436"/>
<path d="M52.0937 69.8125C51.6875 70.625 50.8437 71.0938 50 71.0938C49.6562 71.0938 49.2812 71 48.9687 70.8438L37.5 65.125L26.0312 70.8438C25.7187 71 25.3437 71.0938 25 71.0938C24.1562 71.0938 23.3125 70.625 22.9062 69.8125C22.3125 68.625 22.7812 67.2188 23.9687 66.6562L35.1562 61.0625V53.125H39.8437V61.0625L51.0312 66.6562C52.2187 67.2188 52.6875 68.625 52.0937 69.8125Z" fill="#FD7436"/>
<path d="M9.375 6.25V44.0625C9.375 50 12.5 53.125 18.4375 53.125H56.5625C62.5 53.125 65.625 50 65.625 44.0625V6.25H9.375ZM53.0625 26.8125L43.2188 35.0312C42.3125 35.7812 41.1562 36.0938 40.0625 35.9062C38.9375 35.7188 37.9688 35.0313 37.375 34.0313L34.0938 28.5625L24.9375 36.1875C24.5 36.5625 23.9688 36.7188 23.4375 36.7188C22.7812 36.7188 22.0938 36.4375 21.625 35.875C20.7812 34.875 20.9375 33.4062 21.9375 32.5625L31.7812 24.3438C32.6875 23.5938 33.8438 23.2812 34.9375 23.4688C36.0625 23.6562 37.0312 24.3437 37.625 25.3437L40.9062 30.8125L50.0625 23.1875C51.0625 22.3438 52.5312 22.5 53.375 23.5C54.1875 24.5 54.0625 25.9688 53.0625 26.8125Z" fill="#FD7436"/>
</svg>
