<svg width="84" height="62" viewBox="0 0 84 62" fill="none" xmlns="http://www.w3.org/2000/svg">
<path d="M20.5039 62C16.9764 62 13.8898 61.3333 11.2441 60C8.59843 58.5185 6.46719 56.5926 4.85039 54.2222C3.38058 51.8519 2.20472 49.037 1.32283 45.7778C0.440945 42.5185 0 39.1111 0 35.5556C0 28.2963 1.83727 21.4815 5.51181 15.1111C9.33333 8.74075 15.2126 3.70371 23.1496 0L25.1339 4C21.0184 5.92593 17.3438 8.74075 14.1102 12.4445C11.0236 16 9.18635 19.7778 8.59842 23.7778C7.71654 26.8889 7.64305 29.9259 8.37795 32.8889C11.6115 29.3333 15.9475 27.5556 21.3858 27.5556C26.3832 27.5556 30.4987 29.1111 33.7323 32.2222C36.9659 35.1852 38.5827 39.3333 38.5827 44.6667C38.5827 49.8519 36.8924 54.0741 33.5118 57.3333C30.1312 60.4444 25.7953 62 20.5039 62ZM65.9213 62C62.3937 62 59.3071 61.3333 56.6614 60C54.0158 58.5185 51.8845 56.5926 50.2677 54.2222C48.7979 51.8519 47.6221 49.037 46.7402 45.7778C45.8583 42.5185 45.4173 39.1111 45.4173 35.5556C45.4173 28.2963 47.2546 21.4815 50.9291 15.1111C54.7507 8.74075 60.6299 3.70371 68.5669 0L70.5512 4C66.4357 5.92593 62.7612 8.74075 59.5276 12.4445C56.4409 16 54.6037 19.7778 54.0157 23.7778C53.1339 26.8889 53.0604 29.9259 53.7953 32.8889C57.0289 29.3333 61.3648 27.5556 66.8032 27.5556C71.8005 27.5556 75.916 29.1111 79.1496 32.2222C82.3832 35.1852 84 39.3333 84 44.6667C84 49.8519 82.3097 54.0741 78.9291 57.3333C75.5486 60.4444 71.2126 62 65.9213 62Z" fill="#FD7436"/>
</svg>
