<svg width="194" height="194" viewBox="0 0 194 194" fill="none" xmlns="http://www.w3.org/2000/svg">
<g clip-path="url(#clip0_190_2791)">
<path d="M193.193 47.1245C178.771 32.2725 167.231 30.4874 159.341 32.3159C155.335 33.2443 152.225 35.1135 150.116 36.7536C149.061 37.5731 148.259 38.3336 147.722 38.8871C147.468 39.1485 147.274 39.3635 147.141 39.5164C150.935 45.9916 155.684 49.691 160.672 51.6138C165.746 53.5702 171.103 53.7009 176.012 52.9916C180.92 52.2823 185.356 50.7363 188.57 49.3644C190.175 48.6789 191.472 48.0383 192.366 47.5698C192.7 47.3952 192.977 47.2446 193.193 47.1245Z" fill="#8B966C" stroke="#8B966C"/>
<path d="M132.21 29.7367C132.362 29.7767 132.551 29.8238 132.774 29.8747C133.438 30.0267 134.4 30.2126 135.582 30.3458C137.948 30.6123 141.185 30.6659 144.676 29.821C151.527 28.1626 159.461 23.021 163.703 8.92868C163.552 8.91232 163.372 8.89451 163.166 8.87682C162.45 8.81536 161.417 8.75546 160.155 8.76285C157.63 8.77764 154.2 9.06199 150.574 10.1362C143.434 12.251 135.514 17.4265 132.21 29.7367Z" fill="#8B966C" stroke="#8B966C"/>
<path d="M132.383 45.0122C132.363 45.1699 132.34 45.3653 132.317 45.595C132.249 46.2763 132.185 47.2584 132.2 48.4523C132.23 50.8422 132.578 54.0685 133.844 57.4273C136.329 64.0215 142.387 71.225 156.826 73.5458C156.825 73.3891 156.822 73.2009 156.815 72.9839C156.793 72.2612 156.728 71.223 156.568 69.9668C156.248 67.4525 155.546 64.0771 154.036 60.6144C151.065 53.7972 144.964 46.6228 132.383 45.0122Z" fill="#8B966C" stroke="#8B966C"/>
<path d="M28.5886 63.9774C28.7864 63.9098 29.0453 63.8175 29.3565 63.6982C30.133 63.4005 31.2338 62.9353 32.5219 62.268C35.0999 60.9324 38.417 58.7931 41.3878 55.5767C47.2382 49.2429 51.817 38.6584 46.5699 21.5704C46.3837 21.6667 46.1502 21.7904 45.8756 21.9419C45.1083 22.3652 44.021 23.0048 42.7478 23.8664C40.1999 25.5907 36.9168 28.1983 33.9656 31.7335C28.1386 38.7136 23.5904 49.3183 28.5886 63.9774Z" fill="#8B966C" stroke="#8B966C"/>
<path d="M38.9634 79.0077C39.0545 79.1952 39.1774 79.4398 39.3333 79.7326C39.7231 80.4646 40.3184 81.4964 41.1366 82.687C42.7741 85.0699 45.2972 88.0789 48.8427 90.5968C55.8247 95.5553 66.8565 98.6725 83.1149 91.1244C82.9971 90.953 82.8465 90.7387 82.6638 90.4876C82.1511 89.7835 81.3853 88.7909 80.3771 87.6438C78.3595 85.3483 75.3781 82.4425 71.5199 79.991C63.9023 75.1509 52.8536 72.0668 38.9634 79.0077Z" fill="#8B966C" stroke="#8B966C"/>
<path d="M59.9223 42.7094C60.0865 42.6733 60.2914 42.6256 60.5322 42.5645C61.2214 42.3895 62.2033 42.1045 63.3648 41.6662C65.6898 40.789 68.7229 39.3022 71.5698 36.8643C77.1614 32.0761 82.1135 23.5541 79.4078 8.51617C79.2546 8.57447 79.0711 8.64627 78.8604 8.73207C78.1659 9.01496 77.1772 9.44981 76.008 10.0551C73.6679 11.2667 70.6143 13.1562 67.75 15.8689C62.1071 21.2131 57.1827 29.7588 59.9223 42.7094Z" fill="#8B966C" stroke="#8B966C"/>
<path d="M67.277 56.6874C67.333 56.846 67.4056 57.0438 67.4959 57.2755C67.754 57.9376 68.1569 58.8759 68.7335 59.9722C69.8877 62.1667 71.732 64.9831 74.4936 67.4849C79.9185 72.3997 88.9596 76.1729 103.505 71.4319C103.429 71.2866 103.335 71.1123 103.224 70.9122C102.86 70.2589 102.309 69.3336 101.567 68.2519C100.08 66.0871 97.8326 63.3055 94.794 60.8245C88.8077 55.9367 79.7406 52.1992 67.277 56.6874Z" fill="#8B966C" stroke="#8B966C"/>
<path d="M94.1949 32.3929C94.3626 32.3907 94.5724 32.3854 94.8198 32.3741C95.5291 32.3418 96.5468 32.2608 97.7709 32.0657C100.221 31.6752 103.486 30.8298 106.76 29.0134C113.189 25.4462 119.74 18.0863 120.107 2.78502C119.941 2.81253 119.742 2.84731 119.513 2.89061C118.772 3.03035 117.715 3.25882 116.449 3.61732C113.915 4.33487 110.552 5.57059 107.211 7.65108C100.63 11.7496 94.1148 19.1308 94.1949 32.3929Z" fill="#8B966C" stroke="#8B966C"/>
<path d="M103.48 59.6286C107.811 65.5315 115.913 71.039 131.113 69.3064C131.065 69.1526 131.007 68.9701 130.938 68.7615C130.703 68.0508 130.341 67.0361 129.824 65.8295C128.79 63.4144 127.142 60.2393 124.662 57.1975C119.778 51.2049 111.663 45.7112 98.5715 47.5923C98.5946 47.7592 98.626 47.9678 98.6681 48.2133C98.7882 48.9144 98.9949 49.9156 99.3403 51.1064C100.031 53.4901 101.275 56.6219 103.48 59.6286Z" fill="#8B966C" stroke="#8B966C"/>
<path d="M168.182 42.1263C168.182 42.1263 5.08713 -0.369772 -35.9616 193.999" stroke="#8B966C" stroke-width="1.16" stroke-miterlimit="10"/>
<path d="M145.661 22.2091C145.661 22.2091 130.936 31.4293 120.222 38.3196C120.222 38.3196 136.107 45.0824 144.438 59.6027" stroke="#8B966C" stroke-width="1.16" stroke-miterlimit="10"/>
<path d="M37.1926 47.2131C37.1926 47.2131 28.5003 66.4038 22.3014 80.5484C22.3014 80.5484 42.9205 76.5966 61.0491 85.5288" stroke="#8B966C" stroke-width="1.16" stroke-miterlimit="10"/>
<path d="M68.8949 29.3561C68.8949 29.3561 59.5566 44.8464 52.8494 56.2918C52.8494 56.2918 70.8307 54.9952 85.3456 64.4464" stroke="#8B966C" stroke-width="1.16" stroke-miterlimit="10"/>
<path d="M105.618 21.1056C105.618 21.1056 93.4008 34.4422 84.5313 44.2948C84.5313 44.2948 102.357 46.6441 114.708 58.8501" stroke="#8B966C" stroke-width="1.16" stroke-miterlimit="10"/>
</g>
<defs>
<clipPath id="clip0_190_2791">
<rect width="194" height="194" fill="white"/>
</clipPath>
</defs>
</svg>
