<svg width="152" height="74" viewBox="0 0 152 74" fill="none" xmlns="http://www.w3.org/2000/svg">
<path d="M147.15 17.6735V40.3328C147.15 42.6148 147.308 44.1031 147.624 44.7977C147.94 45.4674 148.682 45.9263 149.849 46.1743L152 46.5836V48.1091H138.18V46.5464L140.696 45.9883C141.596 45.7899 142.155 45.5046 142.374 45.1325C142.568 44.7108 142.665 43.8055 142.665 42.4164V25.6731C142.665 23.9615 142.592 22.9197 142.447 22.5477C142.106 21.6795 140.745 21.2454 138.363 21.2454L138.18 19.9803L147.15 17.6735ZM140.915 3.12542C140.915 2.25725 141.195 1.5255 141.754 0.930184C142.337 0.310061 143.054 0 143.905 0C144.732 0 145.437 0.310061 146.02 0.930184C146.628 1.5255 146.932 2.25725 146.932 3.12542C146.932 3.96878 146.628 4.68813 146.02 5.28344C145.437 5.85396 144.732 6.13921 143.905 6.13921C143.054 6.13921 142.337 5.85396 141.754 5.28344C141.195 4.68813 140.915 3.96878 140.915 3.12542Z" fill="white"/>
<path d="M105.837 19.9059V18.1943H118.234V19.9059C116.168 19.9059 115.062 20.4392 114.916 21.5058C114.843 22.1259 115.074 23.2049 115.609 24.7428L121.881 42.3047L128.809 22.622C129.271 21.357 128.797 20.526 127.387 20.1291C126.876 19.9803 126.305 19.9059 125.673 19.9059V18.1943H135.774V19.9059C134.145 19.9555 133.015 20.4764 132.382 21.4686C132.115 21.8903 131.677 22.9073 131.07 24.5196L122.1 48.5183H119.802L111.161 25.5986C110.285 23.2669 109.459 21.7414 108.681 21.0221C107.927 20.2779 106.979 19.9059 105.837 19.9059Z" fill="white"/>
<path d="M89.9386 20.836C86.4624 20.836 83.4115 21.7786 80.7861 23.6637V40.3326C80.7861 42.6147 80.9442 44.103 81.2602 44.7975C81.5762 45.4672 82.3176 45.9261 83.4845 46.1742L85.6358 46.5835V48.109H71.816V46.5462L74.332 45.9881C75.2315 45.7897 75.7906 45.5044 76.0094 45.1324C76.2039 44.7107 76.3011 43.8053 76.3011 42.4162V25.6729C76.3011 23.887 76.1431 22.7583 75.8271 22.2871C75.2436 21.6173 73.9674 21.2701 71.9984 21.2452L71.816 19.9802L80.7861 17.6733V20.9476C84.9187 18.6407 88.4557 17.4873 91.3971 17.4873C95.0921 17.4873 97.5838 19.174 98.8722 22.5475C99.5043 24.1846 99.8203 26.1814 99.8203 28.5379V40.407C99.8203 42.6891 99.9783 44.1774 100.294 44.8719C100.635 45.5416 101.364 45.9881 102.482 46.2114L104.633 46.6579V48.109H90.8502V46.5835L93.3297 46.0626C94.2535 45.8641 94.8126 45.5665 95.007 45.1696C95.2015 44.7479 95.2988 43.8425 95.2988 42.4534V29.7285C95.2501 23.8498 93.4634 20.8856 89.9386 20.836Z" fill="white"/>
<path d="M56.7564 17.376C61.4238 17.376 64.3531 19.2363 65.5442 22.9571C66.079 24.6438 66.2249 26.2933 65.9818 27.9057H48.5156C48.1996 29.6916 48.0416 31.3535 48.0416 32.8914C48.0416 38.1253 49.5731 41.6972 52.636 43.6072C54.2647 44.6242 56.2216 45.1327 58.5067 45.1327C60.889 45.1327 63.2835 44.2397 65.6901 42.4537L66.7475 43.57L65.7265 44.7978C62.9553 47.7496 59.6735 49.2379 55.8813 49.2627C53.6205 49.2627 51.5299 48.5681 49.6095 47.1791C45.7444 44.3761 43.8118 40.1345 43.8118 34.4542C43.8118 28.4514 45.4526 23.8997 48.7344 20.7991C51.2139 18.5914 53.8879 17.4504 56.7564 17.376ZM48.8802 25.4872H61.2779C61.2779 23.5276 60.8404 22.0765 59.9653 21.1339C59.0901 20.1665 57.9719 19.6828 56.6106 19.6828C54.4957 19.6828 52.7697 20.3278 51.4327 21.6176C50.0957 22.8827 49.2449 24.1725 48.8802 25.4872Z" fill="white"/>
<path d="M39.3267 5.09757L10.4838 40.3701L10.5932 40.2957C19.7092 44.9094 27.7434 48.1961 34.6958 50.1557C41.6483 52.1401 47.13 53.1323 51.141 53.1323C55.152 53.1323 58.1056 52.909 60.0017 52.4625C61.8979 52.016 63.6238 51.5323 65.1796 51.0114V52.7974C64.1586 53.988 62.1653 54.943 59.1995 55.6624C56.2338 56.3817 52.7211 56.7538 48.6615 56.7786C38.6218 56.8282 24.5589 52.723 6.47281 44.463L6.21756 44.6862C6.21756 46.3977 6.12032 47.5512 5.92585 48.1465C5.73138 48.7418 5.35458 49.3991 4.79547 50.1185C4.26067 50.813 3.59216 51.1355 2.78996 51.0859C1.98776 51.0363 1.34356 50.813 0.857376 50.4161C-0.406704 49.2751 -0.273003 47.762 1.25848 45.8768L33.0185 6.21379H12.9634C11.2617 6.21379 10.107 6.92073 9.49931 8.33461C9.13467 9.20278 8.8308 10.5919 8.58771 12.5018H6.69159V3.83252H39.509L39.3267 5.09757Z" fill="white"/>
<path d="M134.176 69.8553V65.8145H135.115V69.8553H134.176ZM134.176 72.0586V70.8655H135.115V72.0586H134.176Z" fill="white"/>
<path d="M130.447 72.1018C130.145 72.1018 129.869 72.0409 129.619 71.919C129.374 71.7912 129.161 71.62 128.979 71.4051C128.803 71.1903 128.663 70.9436 128.561 70.6649C128.464 70.3862 128.416 70.093 128.416 69.7853C128.416 69.4602 128.464 69.1554 128.561 68.8709C128.663 68.5806 128.805 68.331 128.988 68.122C129.17 67.9072 129.386 67.7388 129.636 67.6169C129.892 67.4892 130.174 67.4253 130.481 67.4253C130.845 67.4253 131.161 67.5124 131.428 67.6866C131.696 67.8607 131.918 68.0871 132.094 68.3658V67.5037H132.922V71.9277C132.922 72.2586 132.862 72.5518 132.743 72.8072C132.623 73.0627 132.455 73.2775 132.239 73.4517C132.029 73.6317 131.778 73.7681 131.488 73.861C131.198 73.9539 130.885 74.0003 130.549 74.0003C130.054 74.0003 129.645 73.9132 129.32 73.7391C128.996 73.5707 128.72 73.3327 128.493 73.025L129.022 72.5199C129.192 72.7637 129.411 72.9495 129.679 73.0772C129.952 73.2049 130.242 73.2688 130.549 73.2688C130.743 73.2688 130.925 73.2427 131.096 73.1904C131.272 73.1382 131.426 73.0569 131.556 72.9466C131.687 72.8363 131.79 72.6969 131.864 72.5286C131.943 72.3602 131.983 72.1599 131.983 71.9277V71.231C131.824 71.5096 131.605 71.7245 131.326 71.8754C131.047 72.0264 130.754 72.1018 130.447 72.1018ZM130.754 71.3268C130.896 71.3268 131.033 71.3035 131.164 71.2571C131.295 71.2048 131.414 71.1381 131.522 71.0568C131.636 70.9697 131.733 70.8739 131.812 70.7694C131.892 70.6591 131.949 70.543 131.983 70.4211V69.228C131.869 68.9377 131.693 68.7026 131.454 68.5226C131.215 68.3368 130.959 68.2439 130.686 68.2439C130.481 68.2439 130.296 68.2904 130.131 68.3832C129.972 68.4703 129.835 68.5893 129.722 68.7403C129.608 68.8854 129.52 69.0509 129.457 69.2367C129.394 69.4225 129.363 69.6141 129.363 69.8115C129.363 70.0205 129.397 70.2179 129.465 70.4037C129.539 70.5836 129.639 70.7433 129.764 70.8826C129.889 71.0162 130.034 71.1236 130.199 71.2048C130.37 71.2861 130.555 71.3268 130.754 71.3268Z" fill="white"/>
<path d="M127.616 72.0583H126.677V69.5067C126.677 69.077 126.609 68.7664 126.472 68.5748C126.336 68.3774 126.139 68.2787 125.883 68.2787C125.747 68.2787 125.607 68.3049 125.465 68.3571C125.328 68.4094 125.2 68.4848 125.081 68.5835C124.961 68.6764 124.853 68.7896 124.757 68.9232C124.666 69.0509 124.594 69.1931 124.543 69.3499V72.0583H123.604V67.5037H124.458V68.4181C124.629 68.1104 124.876 67.8694 125.2 67.6953C125.525 67.5153 125.883 67.4253 126.276 67.4253C126.543 67.4253 126.762 67.4746 126.933 67.5733C127.109 67.672 127.246 67.8085 127.343 67.9826C127.445 68.151 127.516 68.3484 127.556 68.5748C127.596 68.7955 127.616 69.0306 127.616 69.2802V72.0583Z" fill="white"/>
<path d="M121.562 72.058V67.5034H122.501V72.058H121.562ZM121.562 66.7544V65.7007H122.501V66.7544H121.562Z" fill="white"/>
<path d="M120.01 72.058L118.585 69.9592L117.842 70.6733V72.058H116.903V65.7007H117.842V69.7328L119.899 67.5121H120.915L119.191 69.4193L121.017 72.058H120.01Z" fill="white"/>
<path d="M115.847 72.0583H114.908V69.5067C114.908 69.077 114.84 68.7664 114.704 68.5748C114.567 68.3774 114.371 68.2787 114.115 68.2787C113.978 68.2787 113.839 68.3049 113.696 68.3571C113.56 68.4094 113.432 68.4848 113.312 68.5835C113.193 68.6764 113.085 68.7896 112.988 68.9232C112.897 69.0509 112.826 69.1931 112.775 69.3499V72.0583H111.836V67.5037H112.689V68.4181C112.86 68.1104 113.108 67.8694 113.432 67.6953C113.756 67.5153 114.115 67.4253 114.507 67.4253C114.775 67.4253 114.994 67.4746 115.164 67.5733C115.341 67.672 115.477 67.8085 115.574 67.9826C115.677 68.151 115.748 68.3484 115.787 68.5748C115.827 68.7955 115.847 69.0306 115.847 69.2802V72.0583Z" fill="white"/>
<path d="M109.794 72.058V67.5034H110.733V72.058H109.794ZM109.794 66.7544V65.7007H110.733V66.7544H109.794Z" fill="white"/>
<path d="M108.738 72.058H107.799V69.5064C107.799 69.0883 107.725 68.7806 107.577 68.5832C107.429 68.38 107.219 68.2784 106.946 68.2784C106.82 68.2784 106.692 68.3046 106.561 68.3568C106.431 68.4091 106.305 68.4845 106.186 68.5832C106.072 68.6761 105.967 68.7894 105.87 68.9229C105.779 69.0506 105.711 69.1929 105.665 69.3496V72.058H104.727V65.7007H105.665V68.4178C105.842 68.1043 106.075 67.8604 106.365 67.6863C106.661 67.5121 106.982 67.425 107.33 67.425C107.603 67.425 107.83 67.4772 108.012 67.5818C108.194 67.6804 108.339 67.814 108.448 67.9823C108.556 68.1507 108.63 68.3481 108.669 68.5745C108.715 68.7952 108.738 69.0303 108.738 69.2799V72.058Z" fill="white"/>
<path d="M104.118 71.8232C103.993 71.8813 103.825 71.9481 103.615 72.0235C103.41 72.0932 103.185 72.128 102.941 72.128C102.793 72.128 102.653 72.1077 102.522 72.0671C102.397 72.0264 102.284 71.9655 102.181 71.8842C102.084 71.8029 102.008 71.6984 101.951 71.5707C101.894 71.4372 101.865 71.2775 101.865 71.0917V68.244H101.268V67.5037H101.865V66.0059H102.804V67.5037H103.777V68.244H102.804V70.7869C102.804 70.9495 102.85 71.0685 102.941 71.144C103.032 71.2136 103.143 71.2485 103.274 71.2485C103.404 71.2485 103.53 71.2252 103.649 71.1788C103.769 71.1323 103.857 71.0946 103.914 71.0656L104.118 71.8232Z" fill="white"/>
<path d="M96.807 72.0582V68.775H96.2095V68.0348H96.807V67.4339C96.807 66.8707 96.935 66.4266 97.191 66.1015C97.4471 65.7763 97.7941 65.6138 98.2322 65.6138C98.4143 65.6138 98.5935 65.6399 98.7699 65.6921C98.9463 65.7386 99.1113 65.8054 99.2649 65.8924L99.0601 66.6066C98.9804 66.5543 98.8809 66.5108 98.7614 66.4759C98.6476 66.4411 98.5366 66.4237 98.4285 66.4237C98.2066 66.4237 98.0359 66.5079 97.9165 66.6762C97.8027 66.8446 97.7458 67.0884 97.7458 67.4078V68.0348H98.8809V68.775H97.7458V72.0582H96.807Z" fill="white"/>
<path d="M93.4556 72.1454C93.1028 72.1454 92.7842 72.0815 92.4997 71.9538C92.2209 71.8261 91.982 71.6548 91.7828 71.44C91.5837 71.2252 91.4301 70.9755 91.3219 70.691C91.2138 70.4007 91.1598 70.0988 91.1598 69.7853C91.1598 69.4718 91.2138 69.1728 91.3219 68.8883C91.4301 68.5981 91.5837 68.3455 91.7828 68.1307C91.9876 67.9159 92.2295 67.7446 92.5083 67.6169C92.7927 67.4892 93.1085 67.4253 93.4556 67.4253C93.8027 67.4253 94.1156 67.4892 94.3944 67.6169C94.6789 67.7446 94.9207 67.9159 95.1199 68.1307C95.3247 68.3455 95.4812 68.5981 95.5893 68.8883C95.6974 69.1728 95.7514 69.4718 95.7514 69.7853C95.7514 70.0988 95.6974 70.4007 95.5893 70.691C95.4812 70.9755 95.3247 71.2252 95.1199 71.44C94.9207 71.6548 94.6789 71.8261 94.3944 71.9538C94.1156 72.0815 93.8027 72.1454 93.4556 72.1454ZM92.1242 69.794C92.1242 70.0147 92.1583 70.2179 92.2266 70.4037C92.2949 70.5894 92.3888 70.752 92.5083 70.8913C92.6277 71.0249 92.7671 71.1323 92.9265 71.2136C93.0915 71.289 93.2678 71.3268 93.4556 71.3268C93.6434 71.3268 93.8169 71.289 93.9762 71.2136C94.1412 71.1323 94.2835 71.022 94.4029 70.8826C94.5224 70.7433 94.6163 70.5807 94.6846 70.3949C94.7529 70.2092 94.787 70.006 94.787 69.7853C94.787 69.5705 94.7529 69.3702 94.6846 69.1844C94.6163 68.9928 94.5224 68.8274 94.4029 68.688C94.2835 68.5487 94.1412 68.4413 93.9762 68.3658C93.8169 68.2845 93.6434 68.2439 93.4556 68.2439C93.2735 68.2439 93.1 68.2845 92.935 68.3658C92.7757 68.4471 92.6363 68.5574 92.5168 68.6968C92.3973 68.8361 92.3006 69.0016 92.2266 69.1931C92.1583 69.3789 92.1242 69.5792 92.1242 69.794Z" fill="white"/>
<path d="M88.8412 68.3308C88.4771 68.3424 88.1556 68.4295 87.8768 68.5921C87.598 68.7488 87.396 68.9753 87.2708 69.2714V72.0581H86.332V67.5035H87.2026V68.5224C87.3619 68.2089 87.5639 67.9535 87.8085 67.7561C88.0589 67.5587 88.3234 67.46 88.6022 67.46C88.6591 67.46 88.7047 67.46 88.7388 67.46C88.7786 67.46 88.8128 67.4629 88.8412 67.4687V68.3308Z" fill="white"/>
<path d="M83.2962 72.1454C82.9491 72.1454 82.6333 72.0844 82.3488 71.9625C82.0643 71.8348 81.8197 71.6635 81.6148 71.4487C81.4157 71.2339 81.2592 70.9842 81.1454 70.6997C81.0373 70.4153 80.9833 70.1134 80.9833 69.794C80.9833 69.4747 81.0373 69.1728 81.1454 68.8883C81.2592 68.5981 81.4157 68.3455 81.6148 68.1307C81.8197 67.9101 82.0643 67.7388 82.3488 67.6169C82.6333 67.4892 82.9519 67.4253 83.3047 67.4253C83.6518 67.4253 83.9647 67.4892 84.2435 67.6169C84.528 67.7446 84.7698 67.9159 84.9689 68.1307C85.1681 68.3397 85.3189 68.5864 85.4213 68.8709C85.5294 69.1496 85.5834 69.4428 85.5834 69.7505C85.5834 69.8202 85.5806 69.8869 85.5749 69.9508C85.5692 70.0089 85.5635 70.0582 85.5578 70.0988H81.9818C81.9989 70.302 82.0444 70.4849 82.1184 70.6475C82.198 70.8101 82.2976 70.9523 82.4171 71.0742C82.5423 71.1903 82.6817 71.2803 82.8353 71.3442C82.9946 71.408 83.1596 71.44 83.3303 71.44C83.4555 71.44 83.5778 71.4255 83.6973 71.3964C83.8225 71.3616 83.9363 71.3152 84.0387 71.2571C84.1411 71.1932 84.2321 71.1178 84.3118 71.0307C84.3914 70.9436 84.454 70.8478 84.4995 70.7433L85.3018 70.9784C85.1482 71.321 84.8921 71.6025 84.5337 71.8232C84.1809 72.038 83.7684 72.1454 83.2962 72.1454ZM84.6532 69.437C84.6361 69.2454 84.5877 69.0683 84.5081 68.9058C84.4341 68.7432 84.3374 68.6068 84.2179 68.4965C84.0984 68.3803 83.959 68.2904 83.7997 68.2265C83.6404 68.1626 83.4725 68.1307 83.2962 68.1307C83.1198 68.1307 82.9519 68.1626 82.7926 68.2265C82.639 68.2904 82.5024 68.3803 82.383 68.4965C82.2635 68.6068 82.1667 68.7432 82.0928 68.9058C82.0188 69.0683 81.9733 69.2454 81.9562 69.437H84.6532Z" fill="white"/>
<path d="M79.7459 67.5034H80.642L78.7559 72.058H77.9878L77.1514 69.9418L76.3235 72.058H75.5469L73.6693 67.5034H74.5569L75.9992 71.1349L76.6478 69.4454L75.8712 67.5121H76.6393L77.1514 68.9403L77.6635 67.5121H78.4316L77.6635 69.4454L78.3121 71.1349L79.7459 67.5034Z" fill="white"/>
<path d="M71.2022 72.1454C70.8494 72.1454 70.5308 72.0815 70.2463 71.9538C69.9675 71.8261 69.7285 71.6548 69.5294 71.44C69.3303 71.2252 69.1766 70.9755 69.0685 70.691C68.9604 70.4007 68.9064 70.0988 68.9064 69.7853C68.9064 69.4718 68.9604 69.1728 69.0685 68.8883C69.1766 68.5981 69.3303 68.3455 69.5294 68.1307C69.7342 67.9159 69.976 67.7446 70.2548 67.6169C70.5393 67.4892 70.8551 67.4253 71.2022 67.4253C71.5493 67.4253 71.8622 67.4892 72.141 67.6169C72.4255 67.7446 72.6673 67.9159 72.8664 68.1307C73.0713 68.3455 73.2277 68.5981 73.3358 68.8883C73.4439 69.1728 73.498 69.4718 73.498 69.7853C73.498 70.0988 73.4439 70.4007 73.3358 70.691C73.2277 70.9755 73.0713 71.2252 72.8664 71.44C72.6673 71.6548 72.4255 71.8261 72.141 71.9538C71.8622 72.0815 71.5493 72.1454 71.2022 72.1454ZM69.8708 69.794C69.8708 70.0147 69.9049 70.2179 69.9732 70.4037C70.0415 70.5894 70.1354 70.752 70.2548 70.8913C70.3743 71.0249 70.5137 71.1323 70.673 71.2136C70.838 71.289 71.0144 71.3268 71.2022 71.3268C71.3899 71.3268 71.5635 71.289 71.7228 71.2136C71.8878 71.1323 72.03 71.022 72.1495 70.8826C72.269 70.7433 72.3629 70.5807 72.4312 70.3949C72.4994 70.2092 72.5336 70.006 72.5336 69.7853C72.5336 69.5705 72.4994 69.3702 72.4312 69.1844C72.3629 68.9928 72.269 68.8274 72.1495 68.688C72.03 68.5487 71.8878 68.4413 71.7228 68.3658C71.5635 68.2845 71.3899 68.2439 71.2022 68.2439C71.0201 68.2439 70.8466 68.2845 70.6816 68.3658C70.5223 68.4471 70.3829 68.5574 70.2634 68.6968C70.1439 68.8361 70.0472 69.0016 69.9732 69.1931C69.9049 69.3789 69.8708 69.5792 69.8708 69.794Z" fill="white"/>
<path d="M66.3718 72.1454C66.0134 72.1454 65.6976 72.0583 65.4245 71.8841C65.1571 71.7099 64.9408 71.4835 64.7758 71.2048V73.9132H63.837V67.5037H64.6649V68.3223C64.8356 68.0494 65.0575 67.8317 65.3306 67.6691C65.6037 67.5066 65.911 67.4253 66.2523 67.4253C66.5539 67.4253 66.8327 67.4892 67.0887 67.6169C67.3448 67.7446 67.5667 67.9159 67.7544 68.1307C67.9422 68.3455 68.0873 68.5952 68.1897 68.8796C68.2978 69.1641 68.3519 69.4631 68.3519 69.7766C68.3519 70.1076 68.3035 70.4182 68.2068 70.7085C68.11 70.9929 67.9735 71.2426 67.7971 71.4574C67.6207 71.6664 67.4102 71.8348 67.1655 71.9625C66.9266 72.0844 66.662 72.1454 66.3718 72.1454ZM66.0731 71.3268C66.2666 71.3268 66.4458 71.2832 66.6108 71.1961C66.7758 71.1091 66.9152 70.9929 67.029 70.8478C67.1428 70.7026 67.231 70.5372 67.2936 70.3514C67.3618 70.1656 67.396 69.974 67.396 69.7766C67.396 69.5676 67.359 69.3702 67.285 69.1844C67.2167 68.9987 67.12 68.8361 66.9948 68.6968C66.8697 68.5574 66.7217 68.4471 66.551 68.3658C66.3804 68.2845 66.1983 68.2439 66.0048 68.2439C65.8853 68.2439 65.7602 68.2671 65.6293 68.3136C65.4984 68.36 65.3733 68.4239 65.2538 68.5052C65.14 68.5864 65.0404 68.6822 64.9551 68.7926C64.8697 68.8971 64.81 69.0132 64.7758 69.1409V70.334C64.8327 70.4733 64.9067 70.6039 64.9977 70.7259C65.0888 70.8478 65.1912 70.9523 65.305 71.0394C65.4188 71.1265 65.5411 71.1961 65.672 71.2484C65.8028 71.3006 65.9366 71.3268 66.0731 71.3268Z" fill="white"/>
<path d="M58.7091 72.1454C58.362 72.1454 58.0462 72.0844 57.7617 71.9625C57.4772 71.8348 57.2326 71.6635 57.0277 71.4487C56.8286 71.2339 56.6721 70.9842 56.5583 70.6997C56.4502 70.4153 56.3962 70.1134 56.3962 69.794C56.3962 69.4747 56.4502 69.1728 56.5583 68.8883C56.6721 68.5981 56.8286 68.3455 57.0277 68.1307C57.2326 67.9101 57.4772 67.7388 57.7617 67.6169C58.0462 67.4892 58.3648 67.4253 58.7176 67.4253C59.0647 67.4253 59.3776 67.4892 59.6564 67.6169C59.9409 67.7446 60.1827 67.9159 60.3818 68.1307C60.581 68.3397 60.7318 68.5864 60.8342 68.8709C60.9423 69.1496 60.9963 69.4428 60.9963 69.7505C60.9963 69.8202 60.9935 69.8869 60.9878 69.9508C60.9821 70.0089 60.9764 70.0582 60.9707 70.0988H57.3947C57.4118 70.302 57.4573 70.4849 57.5313 70.6475C57.6109 70.8101 57.7105 70.9523 57.83 71.0742C57.9552 71.1903 58.0946 71.2803 58.2482 71.3442C58.4075 71.408 58.5725 71.44 58.7432 71.44C58.8684 71.44 58.9907 71.4255 59.1102 71.3964C59.2354 71.3616 59.3492 71.3152 59.4516 71.2571C59.554 71.1932 59.645 71.1178 59.7247 71.0307C59.8043 70.9436 59.8669 70.8478 59.9124 70.7433L60.7147 70.9784C60.5611 71.321 60.305 71.6025 59.9466 71.8232C59.5938 72.038 59.1813 72.1454 58.7091 72.1454ZM60.0661 69.437C60.049 69.2454 60.0006 69.0683 59.921 68.9058C59.847 68.7432 59.7503 68.6068 59.6308 68.4965C59.5113 68.3803 59.3719 68.2904 59.2126 68.2265C59.0533 68.1626 58.8854 68.1307 58.7091 68.1307C58.5327 68.1307 58.3648 68.1626 58.2055 68.2265C58.0519 68.2904 57.9153 68.3803 57.7959 68.4965C57.6764 68.6068 57.5796 68.7432 57.5057 68.9058C57.4317 69.0683 57.3862 69.2454 57.3691 69.437H60.0661Z" fill="white"/>
<path d="M55.6131 72.058H54.6743V69.5064C54.6743 69.0883 54.6004 68.7806 54.4524 68.5832C54.3045 68.38 54.094 68.2784 53.8209 68.2784C53.6957 68.2784 53.5677 68.3046 53.4368 68.3568C53.3059 68.4091 53.1808 68.4845 53.0613 68.5832C52.9475 68.6761 52.8422 68.7894 52.7455 68.9229C52.6545 69.0506 52.5862 69.1929 52.5407 69.3496V72.058H51.6019V65.7007H52.5407V68.4178C52.7171 68.1043 52.9503 67.8604 53.2405 67.6863C53.5364 67.5121 53.8579 67.425 54.2049 67.425C54.478 67.425 54.7056 67.4772 54.8877 67.5818C55.0698 67.6804 55.2149 67.814 55.323 67.9823C55.4311 68.1507 55.505 68.3481 55.5449 68.5745C55.5904 68.7952 55.6131 69.0303 55.6131 69.2799V72.058Z" fill="white"/>
<path d="M50.9937 71.8232C50.8685 71.8813 50.7007 71.9481 50.4901 72.0235C50.2853 72.0932 50.0606 72.128 49.8159 72.128C49.668 72.128 49.5286 72.1077 49.3977 72.0671C49.2725 72.0264 49.1587 71.9655 49.0563 71.8842C48.9596 71.8029 48.8828 71.6984 48.8259 71.5707C48.769 71.4372 48.7406 71.2775 48.7406 71.0917V68.244H48.1431V67.5037H48.7406V66.0059H49.6794V67.5037H50.6523V68.244H49.6794V70.7869C49.6794 70.9495 49.7249 71.0685 49.8159 71.144C49.9069 71.2136 50.0179 71.2485 50.1488 71.2485C50.2796 71.2485 50.4048 71.2252 50.5243 71.1788C50.6438 71.1323 50.732 71.0946 50.7889 71.0656L50.9937 71.8232Z" fill="white"/>
<path d="M44.8486 72.058L43.4233 69.9592L42.6808 70.6733V72.058H41.742V65.7007H42.6808V69.7328L44.7377 67.5121H45.7533L44.0293 69.4193L45.8557 72.058H44.8486Z" fill="white"/>
<path d="M36.7015 69.7766C36.7015 69.4573 36.7555 69.1554 36.8636 68.8709C36.9717 68.5864 37.1254 68.3368 37.3245 68.122C37.5293 67.9072 37.774 67.7388 38.0585 67.6169C38.343 67.4892 38.6616 67.4253 39.0144 67.4253C39.4752 67.4253 39.8707 67.5298 40.2007 67.7388C40.5364 67.942 40.7867 68.2149 40.9517 68.5574L40.0385 68.8535C39.9304 68.6619 39.7853 68.5139 39.6032 68.4094C39.4212 68.2991 39.2192 68.2439 38.9973 68.2439C38.8095 68.2439 38.6331 68.2816 38.4681 68.3571C38.3088 68.4326 38.1694 68.54 38.0499 68.6793C37.9305 68.8129 37.8366 68.9725 37.7683 69.1583C37.7 69.3441 37.6659 69.5502 37.6659 69.7766C37.6659 69.9972 37.7 70.2034 37.7683 70.3949C37.8423 70.5807 37.939 70.7433 38.0585 70.8826C38.1837 71.022 38.3259 71.1323 38.4852 71.2136C38.6502 71.289 38.8238 71.3268 39.0058 71.3268C39.1196 71.3268 39.2334 71.3123 39.3472 71.2832C39.461 71.2484 39.5634 71.2019 39.6545 71.1439C39.7512 71.0858 39.8337 71.0191 39.902 70.9436C39.9759 70.8681 40.03 70.7868 40.0641 70.6997L40.9859 70.9784C40.8379 71.321 40.5904 71.6025 40.2433 71.8232C39.8963 72.038 39.4866 72.1454 39.0144 72.1454C38.6673 72.1454 38.3515 72.0815 38.067 71.9538C37.7825 71.8261 37.5379 71.6548 37.333 71.44C37.1339 71.2194 36.9774 70.9668 36.8636 70.6823C36.7555 70.3978 36.7015 70.0959 36.7015 69.7766Z" fill="white"/>
<path d="M33.8716 72.1454C33.5188 72.1454 33.2002 72.0815 32.9157 71.9538C32.6369 71.8261 32.3979 71.6548 32.1988 71.44C31.9996 71.2252 31.846 70.9755 31.7379 70.691C31.6298 70.4007 31.5757 70.0988 31.5757 69.7853C31.5757 69.4718 31.6298 69.1728 31.7379 68.8883C31.846 68.5981 31.9996 68.3455 32.1988 68.1307C32.4036 67.9159 32.6454 67.7446 32.9242 67.6169C33.2087 67.4892 33.5245 67.4253 33.8716 67.4253C34.2186 67.4253 34.5316 67.4892 34.8104 67.6169C35.0949 67.7446 35.3367 67.9159 35.5358 68.1307C35.7406 68.3455 35.8971 68.5981 36.0052 68.8883C36.1133 69.1728 36.1674 69.4718 36.1674 69.7853C36.1674 70.0988 36.1133 70.4007 36.0052 70.691C35.8971 70.9755 35.7406 71.2252 35.5358 71.44C35.3367 71.6548 35.0949 71.8261 34.8104 71.9538C34.5316 72.0815 34.2186 72.1454 33.8716 72.1454ZM32.5402 69.794C32.5402 70.0147 32.5743 70.2179 32.6426 70.4037C32.7108 70.5894 32.8047 70.752 32.9242 70.8913C33.0437 71.0249 33.1831 71.1323 33.3424 71.2136C33.5074 71.289 33.6838 71.3268 33.8716 71.3268C34.0593 71.3268 34.2329 71.289 34.3922 71.2136C34.5572 71.1323 34.6994 71.022 34.8189 70.8826C34.9384 70.7433 35.0323 70.5807 35.1005 70.3949C35.1688 70.2092 35.203 70.006 35.203 69.7853C35.203 69.5705 35.1688 69.3702 35.1005 69.1844C35.0323 68.9928 34.9384 68.8274 34.8189 68.688C34.6994 68.5487 34.5572 68.4413 34.3922 68.3658C34.2329 68.2845 34.0593 68.2439 33.8716 68.2439C33.6895 68.2439 33.5159 68.2845 33.3509 68.3658C33.1916 68.4471 33.0522 68.5574 32.9327 68.6968C32.8133 68.8361 32.7165 69.0016 32.6426 69.1931C32.5743 69.3789 32.5402 69.5792 32.5402 69.794Z" fill="white"/>
<path d="M29.3403 65.7007H30.2791V70.7169C30.2791 70.8852 30.3218 71.0188 30.4072 71.1175C30.4925 71.2104 30.612 71.2568 30.7656 71.2568C30.8282 71.2568 30.9022 71.2481 30.9875 71.2307C31.0729 71.2075 31.1525 71.1784 31.2265 71.1436L31.363 71.9187C31.2265 71.9825 31.0643 72.0319 30.8766 72.0667C30.6888 72.1073 30.521 72.1277 30.373 72.1277C30.0487 72.1277 29.7955 72.0377 29.6134 71.8577C29.4314 71.6777 29.3403 71.4223 29.3403 71.0913V65.7007Z" fill="white"/>
<path d="M28.2757 72.0583H27.3369V69.5067C27.3369 69.077 27.2686 68.7664 27.132 68.5748C26.9955 68.3774 26.7992 68.2787 26.5431 68.2787C26.4066 68.2787 26.2672 68.3049 26.125 68.3571C25.9884 68.4094 25.8604 68.4848 25.7409 68.5835C25.6214 68.6764 25.5133 68.7896 25.4166 68.9232C25.3255 69.0509 25.2544 69.1931 25.2032 69.3499V72.0583H24.2644V67.5037H25.1179V68.4181C25.2886 68.1104 25.5361 67.8694 25.8604 67.6953C26.1847 67.5153 26.5431 67.4253 26.9357 67.4253C27.2032 67.4253 27.4222 67.4746 27.5929 67.5733C27.7693 67.672 27.9058 67.8085 28.0026 67.9826C28.105 68.151 28.1761 68.3484 28.2159 68.5748C28.2558 68.7955 28.2757 69.0306 28.2757 69.2802V72.0583Z" fill="white"/>
<path d="M20.5844 71.2221C20.903 71.2221 21.1676 71.1582 21.3781 71.0305C21.5886 70.9028 21.7565 70.7373 21.8816 70.5341C22.0125 70.3251 22.1035 70.09 22.1547 69.8287C22.2116 69.5617 22.2401 69.2888 22.2401 69.0101V65.875H23.2045V69.0101C23.2045 69.4339 23.1561 69.8345 23.0594 70.2119C22.9627 70.5835 22.8091 70.9115 22.5985 71.196C22.388 71.4747 22.1149 71.6953 21.7792 71.8578C21.4492 72.0204 21.0509 72.1017 20.5844 72.1017C20.1007 72.1017 19.6911 72.0175 19.3554 71.8491C19.0254 71.675 18.758 71.4456 18.5531 71.1611C18.3483 70.8709 18.2004 70.5399 18.1093 70.1684C18.0183 69.7968 17.9728 69.4107 17.9728 69.0101V65.875H18.9287V69.0101C18.9287 69.2946 18.9543 69.5704 19.0055 69.8374C19.0624 70.0987 19.1534 70.3338 19.2786 70.5428C19.4094 70.746 19.5801 70.9115 19.7907 71.0392C20.0069 71.1611 20.2714 71.2221 20.5844 71.2221Z" fill="white"/>
</svg>
